<?xml version="1.0" encoding="UTF-8" standalone="no"?>
<!-- Created with Inkscape (http://www.inkscape.org/) -->

<svg
   xmlns:dc="http://purl.org/dc/elements/1.1/"
   xmlns:cc="http://creativecommons.org/ns#"
   xmlns:rdf="http://www.w3.org/1999/02/22-rdf-syntax-ns#"
   xmlns:svg="http://www.w3.org/2000/svg"
   xmlns="http://www.w3.org/2000/svg"
   xmlns:xlink="http://www.w3.org/1999/xlink"
   xmlns:sodipodi="http://sodipodi.sourceforge.net/DTD/sodipodi-0.dtd"
   xmlns:inkscape="http://www.inkscape.org/namespaces/inkscape"
   width="210mm"
   height="297mm"
   id="svg2"
   version="1.1"
   inkscape:version="0.47 r22583"
   sodipodi:docname="rceditor_logo.svg">
  <defs
     id="defs4">
    <inkscape:perspective
       sodipodi:type="inkscape:persp3d"
       inkscape:vp_x="0 : 526.18109 : 1"
       inkscape:vp_y="0 : 1000 : 0"
       inkscape:vp_z="744.09448 : 526.18109 : 1"
       inkscape:persp3d-origin="372.04724 : 350.78739 : 1"
       id="perspective10" />
    <inkscape:perspective
       id="perspective3964"
       inkscape:persp3d-origin="0.5 : 0.33333333 : 1"
       inkscape:vp_z="1 : 0.5 : 1"
       inkscape:vp_y="0 : 1000 : 0"
       inkscape:vp_x="0 : 0.5 : 1"
       sodipodi:type="inkscape:persp3d" />
    <inkscape:perspective
       id="perspective4043"
       inkscape:persp3d-origin="0.5 : 0.33333333 : 1"
       inkscape:vp_z="1 : 0.5 : 1"
       inkscape:vp_y="0 : 1000 : 0"
       inkscape:vp_x="0 : 0.5 : 1"
       sodipodi:type="inkscape:persp3d" />
    <inkscape:perspective
       id="perspective4075"
       inkscape:persp3d-origin="0.5 : 0.33333333 : 1"
       inkscape:vp_z="1 : 0.5 : 1"
       inkscape:vp_y="0 : 1000 : 0"
       inkscape:vp_x="0 : 0.5 : 1"
       sodipodi:type="inkscape:persp3d" />
    <inkscape:perspective
       id="perspective4099"
       inkscape:persp3d-origin="0.5 : 0.33333333 : 1"
       inkscape:vp_z="1 : 0.5 : 1"
       inkscape:vp_y="0 : 1000 : 0"
       inkscape:vp_x="0 : 0.5 : 1"
       sodipodi:type="inkscape:persp3d" />
    <inkscape:perspective
       id="perspective4121"
       inkscape:persp3d-origin="0.5 : 0.33333333 : 1"
       inkscape:vp_z="1 : 0.5 : 1"
       inkscape:vp_y="0 : 1000 : 0"
       inkscape:vp_x="0 : 0.5 : 1"
       sodipodi:type="inkscape:persp3d" />
    <inkscape:perspective
       id="perspective4143"
       inkscape:persp3d-origin="0.5 : 0.33333333 : 1"
       inkscape:vp_z="1 : 0.5 : 1"
       inkscape:vp_y="0 : 1000 : 0"
       inkscape:vp_x="0 : 0.5 : 1"
       sodipodi:type="inkscape:persp3d" />
  </defs>
  <sodipodi:namedview
     id="base"
     pagecolor="#ffffff"
     bordercolor="#666666"
     borderopacity="1.0"
     inkscape:pageopacity="0.0"
     inkscape:pageshadow="2"
     inkscape:zoom="1.9827809"
     inkscape:cx="433.44665"
     inkscape:cy="523.4047"
     inkscape:document-units="px"
     inkscape:current-layer="layer1"
     showgrid="false"
     inkscape:window-width="1920"
     inkscape:window-height="985"
     inkscape:window-x="0"
     inkscape:window-y="0"
     inkscape:window-maximized="1" />
  <metadata
     id="metadata7">
    <rdf:RDF>
      <cc:Work
         rdf:about="">
        <dc:format>image/svg+xml</dc:format>
        <dc:type
           rdf:resource="http://purl.org/dc/dcmitype/StillImage" />
        <dc:title></dc:title>
      </cc:Work>
    </rdf:RDF>
  </metadata>
  <g
     inkscape:label="Capa 1"
     inkscape:groupmode="layer"
     id="layer1">
    <rect
       style="color:#000000;fill:none;fill-opacity:1;fill-rule:nonzero;stroke:#000000;stroke-width:1;stroke-linecap:butt;stroke-linejoin:round;stroke-miterlimit:4;stroke-opacity:1;stroke-dasharray:none;stroke-dashoffset:0;marker:none;visibility:visible;display:inline;overflow:visible;enable-background:accumulate"
       id="rect2910"
       width="506.86386"
       height="274.36212"
       x="93.80764"
       y="403.77817"
       inkscape:export-filename="/home/alberto/src/roadcoin_editor/icons/sources/rceditor_logo_original.png"
       inkscape:export-xdpi="90"
       inkscape:export-ydpi="90" />
    <g
       id="g4169"
       transform="translate(2.7779195,-5.555839)"
       inkscape:export-filename="/home/alberto/src/roadcoin_editor/icons/sources/rceditor_logo_original.png"
       inkscape:export-xdpi="90"
       inkscape:export-ydpi="90">
      <path
         transform="matrix(0.76979333,0.63829322,-0.63829322,0.76979333,493.90827,-220.33683)"
         d="m 405.57625,668.75677 c 0,41.70242 -23.06529,75.50891 -51.51778,75.50891 -28.45248,0 -51.51778,-33.80649 -51.51778,-75.50891 0,-41.70241 23.0653,-75.5089 51.51778,-75.5089 28.45249,0 51.51778,33.80649 51.51778,75.5089 z"
         sodipodi:ry="75.508904"
         sodipodi:rx="51.51778"
         sodipodi:cy="668.75677"
         sodipodi:cx="354.05847"
         id="path4033"
         style="color:#000000;fill:none;stroke:#000000;stroke-width:1;stroke-linecap:butt;stroke-linejoin:round;stroke-miterlimit:4;stroke-opacity:1;stroke-dasharray:none;stroke-dashoffset:0;marker:none;visibility:visible;display:inline;overflow:visible;enable-background:accumulate"
         sodipodi:type="arc" />
      <path
         id="path4064"
         d="m 407.3509,478.30362 c 20.61829,18.61632 16.46594,58.48925 -9.6802,90.02197 l 0,0 c -25.83062,31.1522 -63.63536,42.71668 -85.86529,26.77799"
         style="color:#000000;fill:none;stroke:#000000;stroke-width:1;stroke-linecap:butt;stroke-linejoin:round;stroke-miterlimit:4;stroke-opacity:1;stroke-dasharray:none;stroke-dashoffset:0;marker:none;visibility:visible;display:inline;overflow:visible;enable-background:accumulate" />
      <path
         sodipodi:nodetypes="cc"
         id="path4057"
         d="m 387.35727,461.98172 20.14923,16.47525"
         style="fill:none;stroke:#000000;stroke-width:1px;stroke-linecap:butt;stroke-linejoin:miter;stroke-opacity:1" />
      <path
         sodipodi:nodetypes="cc"
         id="path4059"
         d="m 290.30494,577.69972 21.64372,17.54046"
         style="fill:none;stroke:#000000;stroke-width:1px;stroke-linecap:butt;stroke-linejoin:miter;stroke-opacity:1" />
      <path
         transform="matrix(0.56096597,0.46513884,-0.46513884,0.56096597,450.46941,-21.43218)"
         d="m 405.57625,668.75677 c 0,41.70242 -23.06529,75.50891 -51.51778,75.50891 -28.45248,0 -51.51778,-33.80649 -51.51778,-75.50891 0,-41.70241 23.0653,-75.5089 51.51778,-75.5089 28.45249,0 51.51778,33.80649 51.51778,75.5089 z"
         sodipodi:ry="75.508904"
         sodipodi:rx="51.51778"
         sodipodi:cy="668.75677"
         sodipodi:cx="354.05847"
         id="path4033-2"
         style="color:#000000;fill:none;stroke:#000000;stroke-width:1;stroke-linecap:butt;stroke-linejoin:round;stroke-miterlimit:4;stroke-opacity:1;stroke-dasharray:none;stroke-dashoffset:0;marker:none;visibility:visible;display:inline;overflow:visible;enable-background:accumulate"
         sodipodi:type="arc" />
    </g>
    <flowRoot
       xml:space="preserve"
       id="flowRoot2816"
       style="font-size:40px;font-style:normal;font-weight:normal;fill:#000000;fill-opacity:1;stroke:none;font-family:Bitstream Vera Sans"
       transform="translate(-12.857143,-94.285714)"><flowRegion
         id="flowRegion2818"><rect
           id="rect2820"
           width="427.85715"
           height="151.42857"
           x="159.28572"
           y="127.36218" /></flowRegion><flowPara
         id="flowPara2822"
         style="font-size:72px;font-style:normal;font-variant:normal;font-weight:bold;font-stretch:normal;font-family:Budmo Jiggler;-inkscape-font-specification:Budmo Jiggler Bold">RoadCoin</flowPara></flowRoot>    <flowRoot
       xml:space="preserve"
       id="flowRoot2878"
       style="font-size:72px;font-style:normal;font-variant:normal;font-weight:normal;font-stretch:normal;fill:#000000;fill-opacity:1;stroke:none;font-family:Baveuse;-inkscape-font-specification:Baveuse"
       transform="translate(1.4285714,-137.14286)"><flowRegion
         id="flowRegion2880"><rect
           id="rect2882"
           width="443.57144"
           height="90.714287"
           x="140.71428"
           y="243.07646"
           style="font-size:72px;font-style:normal;font-variant:normal;font-weight:normal;font-stretch:normal;font-family:Baveuse;-inkscape-font-specification:Baveuse" /></flowRegion><flowPara
         id="flowPara2884"
         style="font-size:72px;font-style:normal;font-variant:normal;font-weight:normal;font-stretch:normal;font-family:Anklepants;-inkscape-font-specification:Anklepants">RoadCoin</flowPara></flowRoot>    <flowRoot
       xml:space="preserve"
       id="flowRoot2956"
       style="font-size:40px;font-style:normal;font-weight:normal;fill:none;stroke:#000000;stroke-width:1;stroke-linecap:butt;stroke-linejoin:round;stroke-miterlimit:4;stroke-opacity:1;stroke-dasharray:none;font-family:Bitstream Vera Sans"
       transform="translate(0,-185.71429)"><flowRegion
         id="flowRegion2958"><rect
           id="rect2960"
           width="449.28571"
           height="82.14286"
           x="146.42857"
           y="356.64789"
           style="fill:none;stroke:#000000;stroke-width:1;stroke-linecap:butt;stroke-linejoin:round;stroke-miterlimit:4;stroke-opacity:1;stroke-dasharray:none" /></flowRegion><flowPara
         id="flowPara2962"
         style="font-size:72px;font-style:normal;font-variant:normal;font-weight:normal;font-stretch:normal;fill:none;stroke:#000000;stroke-width:1;stroke-linecap:butt;stroke-linejoin:round;stroke-miterlimit:4;stroke-opacity:1;stroke-dasharray:none;font-family:Foo;-inkscape-font-specification:Foo">RoadCoin</flowPara></flowRoot>    <flowRoot
       xml:space="preserve"
       id="flowRoot2964"
       style="font-size:40px;font-style:normal;font-weight:normal;fill:#000000;fill-opacity:1;stroke:none;font-family:Bitstream Vera Sans"
       transform="translate(-1.4285715,-205.71429)"><flowRegion
         id="flowRegion2966"><rect
           id="rect2968"
           width="445"
           height="81.428574"
           x="147.14285"
           y="451.64789" /></flowRegion><flowPara
         id="flowPara2970"
         style="font-size:72px;font-style:normal;font-variant:normal;font-weight:normal;font-stretch:normal;font-family:'Oliver\'s Barney';-inkscape-font-specification:'Oliver\'s Barney'">RoadCoin</flowPara></flowRoot>    <path
       d="m 167.3125,475.15625 c -3.42527,7e-5 -6.89806,0.34932 -10.40625,1 -0.0427,0.008 -0.0823,0.0233 -0.125,0.0313 -3.37167,0.58461 -6.66099,1.37038 -9.90625,2.3125 a 9.0230227,9.0230227 0 0 0 -1.0625,0.375 c -2.87854,1.23409 -5.96875,6.10942 -5.96875,9.0625 a 9.0230227,9.0230227 0 0 0 0.0313,0.59375 c 0.28915,4.28913 0.58786,8.56995 0.875,12.78125 0.72054,10.42395 1.29524,18.64382 1.78125,24.71875 a 9.0230227,9.0230227 0 0 0 0,0.0313 c 0.38694,4.64338 0.74436,8.32927 1.03125,11.09375 0.28689,2.76448 0.36636,4.14159 0.84375,6.1875 a 9.0230227,9.0230227 0 0 0 0.0313,0.125 c 0.38105,1.52437 1.30111,3.57326 3.1875,5.15625 1.81165,1.52028 4.21722,2.19786 6.03125,2.25 l 0,0.0313 c 0.0842,0.002 0.16586,-0.002 0.25,0 1.7153,0.0459 3.41202,0.0807 5.09375,0.125 a 9.0230227,9.0230227 0 0 0 0.0313,0 c 1.88114,0.0482 3.84291,0.0937 5.90625,0.0937 2.15216,0 3.99487,-0.0796 5.71875,-0.25 0.038,-0.004 0.0871,-0.0274 0.125,-0.0313 0.0656,-0.007 0.15359,0.007 0.21875,0 l 0,-0.0313 c 1.378,-0.10987 2.65781,-0.36076 3.9375,-0.65625 l 0,0.0625 c 0.0386,-0.006 0.0858,-0.0561 0.125,-0.0625 l 0.84375,1 a 9.0230227,9.0230227 0 0 0 0.5,0.53125 c 2.09873,2.09908 6.71981,3.50991 10.03125,2.40625 a 9.0230227,9.0230227 0 0 0 0.15625,-0.0625 l 13.875,-4.90625 a 9.0230227,9.0230227 0 0 0 0.46875,-0.1875 c 1.46352,-0.60985 4.17814,-1.9598 5.53125,-5.6875 1.35311,-3.7277 -0.1472,-7.34399 -1.21875,-8.875 a 9.0230227,9.0230227 0 0 0 -0.28125,-0.34375 l -4.5625,-5.84375 c 0.11204,-0.12626 0.26486,-0.24813 0.375,-0.375 l 0.0313,0 c 0.0158,-0.0179 0.0155,-0.0446 0.0313,-0.0625 3.39685,-3.86639 6.02122,-7.82331 7.15625,-12.625 a 9.0230227,9.0230227 0 0 0 0.0313,-0.125 c 0.56113,-2.55651 0.84367,-5.03552 0.84375,-7.40625 -8e-5,-6.61259 -2.36238,-13.13722 -6.625,-18.15625 -3.99737,-4.68642 -9.40828,-8.09222 -15.71875,-10.59375 a 9.0230227,9.0230227 0 0 0 -0.125,-0.0625 c -3.25878,-1.22865 -6.42685,-2.12736 -9.5625,-2.6875 -0.002,-4e-4 0.002,-0.0308 0,-0.0313 -0.0709,-0.0139 -0.14773,-0.0177 -0.21875,-0.0313 -3.00972,-0.5748 -6.12696,-0.87493 -9.3125,-0.875 z m 6.84375,41.25 0,0.375 -0.0625,-0.0937 c 0.003,-0.064 0.0554,-0.20108 0.0625,-0.28125 z m -0.0937,0.4375 0.0937,0.0937 0,0.0937 0,0.875 c -0.0403,-0.30056 -0.12497,-0.44907 -0.125,-0.875 0,-0.0276 0.0304,-0.1517 0.0313,-0.1875 z"
       inkscape:href="#path3988"
       id="path4006"
       style="font-size:72px;font-style:normal;font-variant:normal;font-weight:normal;font-stretch:normal;fill:#ffffff;stroke:#000000;stroke-width:1;stroke-linecap:butt;stroke-linejoin:round;stroke-miterlimit:4;stroke-opacity:1;font-family:Foo;-inkscape-font-specification:Foo;fill-opacity:1"
       xlink:href="#path3988"
       inkscape:original="M 166.9375 484.1875 C 164.10548 484.18756 161.16573 484.48656 158.09375 485.0625 C 155.02174 485.59055 152.00724 486.2923 149.03125 487.15625 C 148.69525 487.3003 148.53125 487.55355 148.53125 487.9375 C 148.81925 492.20955 149.087 496.46354 149.375 500.6875 C 150.09499 511.10353 150.70749 519.31252 151.1875 525.3125 C 151.95549 534.52851 152.50774 539.84125 152.84375 541.28125 C 152.93974 541.66525 153.17849 541.875 153.5625 541.875 C 155.29049 541.923 157.05099 541.952 158.875 542 C 160.74698 542.048 162.64248 542.09375 164.5625 542.09375 C 166.62648 542.09375 168.34348 542.019 169.6875 541.875 C 171.07947 541.779 172.27322 541.56925 173.28125 541.28125 C 173.61722 541.23325 173.78122 540.9945 173.78125 540.5625 L 173.78125 535.15625 L 182.4375 545.3125 C 182.67746 545.5525 182.93071 545.62725 183.21875 545.53125 L 197.125 540.625 C 197.70095 540.385 197.8047 540.0425 197.46875 539.5625 L 187.96875 527.375 C 190.2247 525.45502 192.1202 523.61977 193.65625 521.84375 C 196.4882 518.62777 198.2197 515.70252 198.84375 513.0625 C 199.2757 511.09453 199.49994 509.27378 199.5 507.59375 C 199.49994 502.88979 198.0072 498.78529 195.03125 495.28125 C 192.2472 492.0173 188.20296 489.3308 182.875 487.21875 C 179.94696 486.1148 177.21472 485.33831 174.71875 484.90625 C 172.27072 484.42631 169.67347 484.18756 166.9375 484.1875 z M 175.53125 511.625 C 176.77922 511.62503 178.04772 512.01328 179.34375 512.78125 C 180.63971 513.54928 181.51996 514.26553 182 514.9375 C 182.47996 515.75352 182.71871 516.45527 182.71875 517.03125 C 182.71871 517.41527 182.64396 517.80352 182.5 518.1875 C 182.40396 518.57152 182.22546 519.04902 181.9375 519.625 C 181.40946 520.77702 180.40871 521.95627 178.96875 523.15625 C 177.19272 524.59627 175.46122 525.31252 173.78125 525.3125 L 173.78125 511.96875 C 174.40522 511.72878 175.00322 511.62503 175.53125 511.625 z "
       inkscape:radius="9.0221205"
       sodipodi:type="inkscape:offset"
       transform="translate(-2.1428571,-0.35714286)"
       inkscape:export-filename="/home/alberto/src/roadcoin_editor/icons/sources/rceditor_logo_original.png"
       inkscape:export-xdpi="90"
       inkscape:export-ydpi="90" />
    <path
       id="path3988"
       style="font-size:72px;font-style:normal;font-variant:normal;font-weight:normal;font-stretch:normal;fill:#ffffff;stroke:#000000;stroke-width:1;stroke-linecap:butt;stroke-linejoin:round;stroke-miterlimit:4;stroke-opacity:1;font-family:Foo;-inkscape-font-specification:Foo;fill-opacity:1"
       d="m 198.84724,513.06219 c -0.62405,2.64002 -2.35205,5.56802 -5.184,8.784 -1.53605,1.77602 -3.43205,3.62402 -5.688,5.544 l 9.504,12.168 c 0.33595,0.48 0.21595,0.84 -0.36,1.08 l -13.896,4.896 c -0.28804,0.096 -0.55204,0.024 -0.792,-0.216 l -8.64,-10.152 0,5.4 c -3e-5,0.432 -0.16803,0.672 -0.504,0.72 -1.00803,0.288 -2.20803,0.48 -3.6,0.576 -1.34402,0.144 -3.04802,0.216 -5.112,0.216 -1.92002,0 -3.81602,-0.024 -5.688,-0.072 -1.82401,-0.048 -3.60001,-0.096 -5.328,-0.144 -0.38401,0 -0.62401,-0.192 -0.72,-0.576 -0.33601,-1.44 -0.88801,-6.76799 -1.656,-15.984 -0.48001,-5.99998 -1.08001,-14.20797 -1.8,-24.624 -0.288,-4.22396 -0.576,-8.47195 -0.864,-12.744 0,-0.38395 0.168,-0.64795 0.504,-0.792 2.97599,-0.86395 5.99999,-1.55995 9.072,-2.088 3.07198,-0.57594 6.02398,-0.86394 8.856,-0.864 2.73597,6e-5 5.32797,0.24006 7.776,0.72 2.49597,0.43206 5.20796,1.20005 8.136,2.304 5.32796,2.11205 9.38395,4.80005 12.168,8.064 2.97595,3.50404 4.46394,7.60804 4.464,12.312 -6e-5,1.68003 -0.21605,3.50403 -0.648,5.472 m -16.848,1.872 c -0.48004,-0.67197 -1.36804,-1.39197 -2.664,-2.16 -1.29603,-0.76797 -2.56803,-1.15197 -3.816,-1.152 -0.52803,3e-5 -1.10403,0.12003 -1.728,0.36 l 0,13.32 c 1.67997,2e-5 3.40797,-0.71998 5.184,-2.16 1.43996,-1.19998 2.42396,-2.37598 2.952,-3.528 0.28796,-0.57598 0.47996,-1.05598 0.576,-1.44 0.14396,-0.38398 0.21596,-0.76798 0.216,-1.152 -4e-5,-0.57598 -0.24004,-1.27198 -0.72,-2.088"
       inkscape:export-filename="/home/alberto/src/roadcoin_editor/icons/sources/rceditor_logo_original.png"
       inkscape:export-xdpi="90"
       inkscape:export-ydpi="90" />
    <path
       sodipodi:type="inkscape:offset"
       inkscape:radius="6.0714288"
       inkscape:original="M 233.21875 495.84375 C 229.33073 495.84379 225.85323 496.76979 222.78125 498.59375 C 219.61324 500.41779 217.30049 502.94029 215.8125 506.15625 C 214.9965 507.98028 214.384 509.87578 214 511.84375 C 213.616 513.76378 213.4375 515.76303 213.4375 517.875 C 213.4375 521.18702 213.915 524.48602 214.875 527.75 C 215.73899 530.82201 216.91824 533.35901 218.40625 535.375 C 220.03824 537.631 222.15799 539.3625 224.75 540.5625 C 227.38998 541.7625 230.16573 542.375 233.09375 542.375 C 235.68572 542.375 238.11897 541.85175 240.375 540.84375 C 242.63097 539.88375 244.46622 538.391 245.90625 536.375 C 247.92221 533.63901 249.50421 530.68476 250.65625 527.46875 C 251.80821 524.20477 252.37496 520.83102 252.375 517.375 C 252.37496 515.64703 252.21096 513.88653 251.875 512.0625 C 251.53896 510.19053 251.00121 508.39878 250.28125 506.71875 C 248.93721 503.16679 246.62446 500.46579 243.3125 498.59375 C 240.43247 496.76979 237.05872 495.84379 233.21875 495.84375 z M 233.03125 517.65625 C 234.32723 517.65627 235.22197 518.10477 235.75 518.96875 C 236.13397 519.59277 236.34372 520.60802 236.34375 522 C 236.29575 522.43202 236.24997 522.86377 236.25 523.34375 C 236.24997 523.77577 236.24997 524.20977 236.25 524.59375 C 236.24997 526.17776 235.93647 527.61026 235.3125 528.90625 C 234.73648 530.15426 233.99123 530.78126 233.03125 530.78125 C 232.11923 530.78126 231.25348 530.15426 230.4375 528.90625 L 230.4375 528.96875 C 230.05348 528.29676 229.73998 527.64076 229.5 526.96875 C 229.308 526.24876 229.18748 525.45777 229.1875 524.59375 L 229.1875 523.0625 C 229.18748 521.28652 229.39723 520.01802 229.78125 519.25 C 230.40523 518.19402 231.49523 517.65627 233.03125 517.65625 z "
       xlink:href="#path3990"
       style="font-size:72px;font-style:normal;font-variant:normal;font-weight:normal;font-stretch:normal;fill:#ffffff;stroke:#000000;stroke-width:1;stroke-linecap:butt;stroke-linejoin:round;stroke-miterlimit:4;stroke-opacity:1;font-family:Foo;-inkscape-font-specification:Foo;fill-opacity:1"
       id="path4017"
       inkscape:href="#path3990"
       d="m 233.59375,489.78125 c -4.82775,5e-5 -9.45674,1.19587 -13.46875,3.5625 -0.0202,0.0119 -0.0424,0.0193 -0.0625,0.0313 -4.11534,2.38542 -7.41569,5.9166 -9.40625,10.21875 a 6.0720359,6.0720359 0 0 0 -0.0313,0.0937 c -1.01326,2.26498 -1.75438,4.59958 -2.21875,6.96875 -0.002,0.01 0.002,0.0216 0,0.0313 -0.45582,2.28897 -0.6875,4.68433 -0.6875,7.1875 0,3.87316 0.55031,7.74858 1.65625,11.53125 0.006,0.023 0.0247,0.0395 0.0313,0.0625 1.01269,3.57642 2.44034,6.75259 4.4375,9.46875 0.008,0.0114 0.0229,0.0199 0.0313,0.0313 2.22802,3.06658 5.20239,5.49475 8.65625,7.09375 a 6.0720359,6.0720359 0 0 0 0.0625,0.0313 c 3.39097,1.54136 7.06903,2.34375 10.84375,2.34375 3.37519,0 6.65445,-0.70533 9.65625,-2.03125 l 0,0.0313 c 0.0348,-0.0148 0.0591,-0.0475 0.0937,-0.0625 3.17938,-1.37601 5.92939,-3.62204 7.9375,-6.40625 0.0171,-0.0232 0.0454,-0.0392 0.0625,-0.0625 2.33019,-3.17625 4.19202,-6.63643 5.53125,-10.375 a 6.0720359,6.0720359 0 0 0 0,-0.0313 c 1.36948,-3.88031 2.0937,-7.96866 2.09375,-12.125 -5e-5,-2.10182 -0.1993,-4.2234 -0.59375,-6.375 -0.002,-0.01 0.002,-0.0213 0,-0.0313 -0.40042,-2.21836 -1.02628,-4.37644 -1.875,-6.40625 -0.0133,-0.0353 -0.049,-0.0586 -0.0625,-0.0937 -0.0204,-0.0482 -0.0107,-0.1082 -0.0313,-0.15625 l -0.0313,0 c -1.80001,-4.57409 -5.09506,-8.38415 -9.3125,-10.84375 -0.0317,-0.0201 -0.0619,-0.0426 -0.0937,-0.0625 -0.0529,-0.0305 -0.10304,-0.0637 -0.15625,-0.0937 -3.83579,-2.35877 -8.34947,-3.5312 -13.0625,-3.53125 z"
       inkscape:export-filename="/home/alberto/src/roadcoin_editor/icons/sources/rceditor_logo_original.png"
       inkscape:export-xdpi="90"
       inkscape:export-ydpi="90" />
    <path
       id="path3990"
       style="font-size:72px;font-style:normal;font-variant:normal;font-weight:normal;font-stretch:normal;fill:#ffffff;stroke:#000000;stroke-width:1;stroke-linecap:butt;stroke-linejoin:round;stroke-miterlimit:4;stroke-opacity:1;font-family:Foo;-inkscape-font-specification:Foo;fill-opacity:1"
       d="m 236.25659,524.57933 c -3e-5,-0.38398 -3e-5,-0.79198 0,-1.224 -3e-5,-0.47998 0.024,-0.93598 0.072,-1.368 -3e-5,-1.39198 -0.19203,-2.39998 -0.576,-3.024 -0.52803,-0.86398 -1.44002,-1.29598 -2.736,-1.296 -1.53602,2e-5 -2.61602,0.52802 -3.24,1.584 -0.38402,0.76802 -0.57602,2.04002 -0.576,3.816 l 0,1.512 c -2e-5,0.86402 0.096,1.65601 0.288,2.376 0.23998,0.67201 0.55198,1.34401 0.936,2.016 l 0,-0.072 c 0.81598,1.24801 1.67998,1.87201 2.592,1.872 0.95998,10e-6 1.72798,-0.62399 2.304,-1.872 0.62397,-1.29599 0.93597,-2.73599 0.936,-4.32 m 14.04,-17.856 c 0.71996,1.68003 1.24796,3.45603 1.584,5.328 0.33596,1.82403 0.50396,3.60003 0.504,5.328 -4e-5,3.45602 -0.57604,6.81602 -1.728,10.08 -1.15204,3.21601 -2.73604,6.19201 -4.752,8.928 -1.44003,2.016 -3.28803,3.504 -5.544,4.464 -2.25603,1.008 -4.68003,1.512 -7.272,1.512 -2.92802,0 -5.71202,-0.6 -8.352,-1.8 -2.59201,-1.2 -4.70401,-2.928 -6.336,-5.184 -1.48801,-2.01599 -2.66401,-4.55999 -3.528,-7.632 -0.96,-3.26398 -1.44,-6.55198 -1.44,-9.864 0,-2.11197 0.192,-4.12797 0.576,-6.048 0.384,-1.96797 0.984,-3.86397 1.8,-5.688 1.48799,-3.21596 3.81599,-5.73596 6.984,-7.56 3.07198,-1.82396 6.55198,-2.73596 10.44,-2.736 3.83997,4e-5 7.19997,0.91204 10.08,2.736 3.31196,1.87204 5.63996,4.58404 6.984,8.136"
       inkscape:export-filename="/home/alberto/src/roadcoin_editor/icons/sources/rceditor_logo_original.png"
       inkscape:export-xdpi="90"
       inkscape:export-ydpi="90" />
    <path
       sodipodi:type="inkscape:offset"
       inkscape:radius="6.7857141"
       inkscape:original="M 282.25 497.71875 C 280.85798 497.71875 279.46899 497.73325 278.125 497.78125 C 276.82899 497.82929 275.70999 497.97879 274.75 498.21875 C 274.50999 498.31479 274.346 498.404 274.25 498.5 C 274.15399 498.59604 274.07925 498.7165 274.03125 498.8125 L 262.65625 540.78125 L 262.65625 541.125 C 262.65625 541.749 263.03 542.10825 263.75 542.15625 C 264.854 542.20425 266.1225 542.21875 267.5625 542.21875 C 269.0025 542.26675 270.67374 542.28125 272.59375 542.28125 C 273.84174 542.28125 275.04999 542.26675 276.25 542.21875 C 277.49799 542.21875 278.49874 542.20425 279.21875 542.15625 C 279.79474 542.06025 280.13723 541.44775 280.28125 540.34375 C 280.37723 539.95975 280.452 539.5715 280.5 539.1875 C 280.548 538.7555 280.60825 538.36725 280.65625 538.03125 L 281.3125 538.96875 C 281.64847 539.30475 281.96198 539.46875 282.25 539.46875 L 282.375 539.46875 C 282.51898 539.42075 282.654 539.39175 282.75 539.34375 L 285.5625 537.625 C 285.65848 538.441 285.74775 539.18625 285.84375 539.90625 C 285.93975 540.62625 285.96872 541.1785 285.96875 541.5625 C 285.96872 542.1865 286.34248 542.5 287.0625 542.5 L 301.59375 543 C 302.31371 543 302.68746 542.6865 302.6875 542.0625 L 302.6875 541.84375 L 293.84375 499.25 C 293.79746 498.60242 293.43827 498.24228 292.8125 498.21875 C 292.57247 498.17075 292.33371 498.15629 292.09375 498.15625 C 291.85371 498.15625 291.60047 498.14175 291.3125 498.09375 C 290.11247 497.99779 288.75472 497.923 287.21875 497.875 C 285.68272 497.779 284.02598 497.71879 282.25 497.71875 z M 282.875 525.9375 L 283.53125 527.8125 L 283.46875 527.8125 C 283.37273 527.8125 283.23772 527.85825 283.09375 527.90625 C 282.99772 527.95425 282.9085 527.98325 282.8125 528.03125 L 282.875 528.03125 L 282.03125 528.625 L 282.875 525.9375 z "
       xlink:href="#path3992"
       style="font-size:72px;font-style:normal;font-variant:normal;font-weight:normal;font-stretch:normal;fill:#ffffff;stroke:#000000;stroke-width:1;stroke-linecap:butt;stroke-linejoin:round;stroke-miterlimit:4;stroke-opacity:1;font-family:Foo;-inkscape-font-specification:Foo;fill-opacity:1"
       id="path4019"
       inkscape:href="#path3992"
       d="m 282.59375,490.9375 c -1.43914,0 -2.88557,0.0104 -4.34375,0.0625 -1.66825,0.0618 -3.25864,0.2366 -4.8125,0.625 a 6.7863927,6.7863927 0 0 0 -0.875,0.28125 c -0.59584,0.23842 -1.43938,0.43938 -2.78125,1.78125 -0.8569,0.85717 -1.17612,1.50849 -1.46875,2.09375 a 6.7863927,6.7863927 0 0 0 -0.5,1.25 L 256.4375,539 a 6.7863927,6.7863927 0 0 0 -0.21875,1.78125 l 0,0.34375 c 0,1.66679 0.73926,4.07673 2.40625,5.65625 1.66699,1.57952 3.62789,2.06269 5.03125,2.15625 a 6.7863927,6.7863927 0 0 0 0.15625,0 c 1.20225,0.0523 2.48222,0.061 3.875,0.0625 0.0786,8e-5 0.13939,0 0.21875,0 1.51711,0.0471 3.15849,0.0625 5.03125,0.0625 1.20841,0 2.45077,-0.018 3.6875,-0.0625 0.10834,0 0.17618,1.5e-4 0.28125,0 1.15619,-0.002 2.14689,6.2e-4 3.09375,-0.0625 a 6.7863927,6.7863927 0 0 0 0.6875,-0.0937 c 0.83433,-0.13906 1.54997,-0.58512 2.28125,-1 1.53686,1.01441 3.08955,1.38427 4.21875,1.40625 l 0,0.0313 0.21875,0 14.34375,0.5 a 6.7863927,6.7863927 0 0 0 0.21875,0 c 1.34491,0 3.4401,-0.27033 5.3125,-1.9375 1.8724,-1.66717 2.53115,-4.22781 2.53125,-5.78125 l 0,-0.21875 a 6.7863927,6.7863927 0 0 0 -0.125,-1.375 l -8.84375,-42.59375 -0.0937,0.0313 c -0.24922,-1.39383 -0.82872,-3.02665 -2.21875,-4.34375 -1.32311,-1.25369 -2.90685,-1.74181 -4.3125,-1.9375 l 0.0313,-0.0937 c -0.26928,-0.0469 -0.7347,-0.0611 -1.15625,-0.0937 -0.11412,-0.009 -0.18747,-0.0262 -0.3125,-0.0313 -0.14647,-0.0244 -0.1762,-0.0305 -0.21875,-0.0313 a 6.7863927,6.7863927 0 0 0 -0.375,-0.0313 c -1.26054,-0.1008 -2.65261,-0.19882 -4.1875,-0.25 -0.0672,-0.004 -0.15107,0.004 -0.21875,0 -1.60628,-0.0967 -3.33624,-0.15621 -5.1875,-0.15625 z"
       inkscape:export-filename="/home/alberto/src/roadcoin_editor/icons/sources/rceditor_logo_original.png"
       inkscape:export-xdpi="90"
       inkscape:export-ydpi="90" />
    <path
       id="path3992"
       style="font-size:72px;font-style:normal;font-variant:normal;font-weight:normal;font-stretch:normal;fill:#ffffff;stroke:#000000;stroke-width:1;stroke-linecap:butt;stroke-linejoin:round;stroke-miterlimit:4;stroke-opacity:1;font-family:Foo;-inkscape-font-specification:Foo;fill-opacity:1"
       d="m 282.81462,528.03533 c 0.096,-0.048 0.19197,-0.096 0.288,-0.144 0.14397,-0.048 0.26397,-0.072 0.35999,-0.072 l 0.072,0 -0.64799,-1.872 -0.86401,2.664 0.86401,-0.576 -0.072,0 m 19.87199,13.824 0,0.216 c -4e-5,0.624 -0.36004,0.936 -1.08,0.936 l -14.544,-0.504 c -0.72002,0 -1.08002,-0.312 -1.07999,-0.936 -3e-5,-0.384 -0.048,-0.936 -0.144,-1.656 -0.096,-0.72 -0.19203,-1.488 -0.28801,-2.304 l -2.80799,1.728 c -0.096,0.048 -0.21603,0.096 -0.36001,0.144 -0.096,0 -0.14402,0 -0.144,0 -0.28802,0 -0.60002,-0.168 -0.93599,-0.504 l -0.64801,-0.936 c -0.048,0.336 -0.096,0.72 -0.144,1.152 -0.048,0.384 -0.12002,0.768 -0.216,1.152 -0.14402,1.104 -0.50401,1.704 -1.08,1.8 -0.72001,0.048 -1.70401,0.072 -2.952,0.072 -1.20001,0.048 -2.42401,0.072 -3.672,0.072 -1.92001,0 -3.6,-0.024 -5.04,-0.072 -1.44,0 -2.712,-0.024 -3.816,-0.072 -0.72,-0.048 -1.08,-0.384 -1.08,-1.008 l 0,-0.36 11.37601,-41.976 c 0.048,-0.096 0.11998,-0.19196 0.21599,-0.288 0.096,-0.096 0.26399,-0.19196 0.504,-0.288 0.95999,-0.23996 2.08799,-0.38396 3.384,-0.432 1.34399,-0.048 2.71198,-0.072 4.104,-0.072 1.77598,4e-5 3.43198,0.048 4.96801,0.144 1.53597,0.048 2.90396,0.12004 4.10399,0.216 0.28797,0.048 0.55197,0.072 0.79201,0.072 0.23996,4e-5 0.47996,0.024 0.71999,0.072 l -0.072,0 c 0.67197,4e-5 1.03197,0.33604 1.08,1.008 l 8.856,42.624"
       inkscape:export-filename="/home/alberto/src/roadcoin_editor/icons/sources/rceditor_logo_original.png"
       inkscape:export-xdpi="90"
       inkscape:export-ydpi="90" />
    <path
       sodipodi:type="inkscape:offset"
       inkscape:radius="6.4372225"
       inkscape:original="M 328.5 496.28125 C 328.40399 496.28125 327.83724 496.29575 326.78125 496.34375 C 325.77324 496.39179 324.32624 496.51229 322.40625 496.65625 C 321.79857 496.65768 321.13537 496.67223 320.4375 496.71875 C 319.7655 496.71879 319.04925 496.71879 318.28125 496.71875 C 317.56125 496.71879 317.21874 497.04679 317.21875 497.71875 L 317.28125 539.5625 C 317.28125 539.8505 317.45975 540.11825 317.84375 540.40625 C 318.99575 541.07825 320.23524 541.6015 321.53125 541.9375 C 323.49923 542.4655 325.54423 542.71875 327.65625 542.71875 C 328.56823 542.71875 329.52323 542.644 330.53125 542.5 C 336.38722 541.684 341.53598 538.90825 346 534.15625 C 350.46397 529.30826 352.68747 524.02452 352.6875 518.3125 C 352.68747 515.69472 352.24045 513.33338 351.34375 511.1875 C 350.57571 509.12353 349.57496 507.30278 348.375 505.71875 C 347.17496 504.13479 345.75696 502.71679 344.125 501.46875 L 344.21875 501.46875 C 341.38673 499.26079 337.77422 497.67879 333.40625 496.71875 C 332.30223 496.47879 331.49674 496.34379 330.96875 496.34375 C 330.72874 496.29575 330.41524 496.28129 330.03125 496.28125 C 329.64724 496.28129 329.12399 496.28129 328.5 496.28125 z M 333.125 519.40625 C 334.22898 519.40627 335.19848 519.64502 336.0625 520.125 C 337.16648 520.84502 338.03223 522.33777 338.65625 524.59375 C 338.69272 524.80298 338.74998 525.00955 338.75 525.21875 C 338.798 525.45877 338.81248 525.74327 338.8125 526.03125 C 338.81248 526.84726 338.64848 527.66726 338.3125 528.53125 C 338.02448 529.34726 337.62173 530.06351 337.09375 530.6875 C 336.56573 531.35951 335.89297 531.91176 335.125 532.34375 C 334.35697 532.77576 333.71548 533.06025 333.1875 533.15625 L 333.125 519.40625 z "
       xlink:href="#path3994"
       style="font-size:72px;font-style:normal;font-variant:normal;font-weight:normal;font-stretch:normal;fill:#ffffff;stroke:#000000;stroke-width:1;stroke-linecap:butt;stroke-linejoin:round;stroke-miterlimit:4;stroke-opacity:1;font-family:Foo;-inkscape-font-specification:Foo;fill-opacity:1"
       id="path4021"
       inkscape:href="#path3994"
       d="m 328.875,489.84375 c -0.74414,0 -0.92388,0.0122 -2.03125,0.0625 a 6.4378662,6.4378662 0 0 0 -0.0313,0 c -1.09987,0.0524 -2.44829,0.1892 -4.0625,0.3125 -0.0276,7e-5 -0.0659,-1.2e-4 -0.0937,0 -0.54838,0.002 -1.19456,0.0286 -1.84375,0.0625 -0.15391,0.008 -0.27802,-0.0106 -0.4375,0 -0.55001,2e-5 -1.10674,3e-5 -1.71875,0 -1.33744,7e-5 -3.36385,0.31252 -5.125,1.90625 -1.76115,1.59373 -2.40627,4.00174 -2.40625,5.53125 l 0.0625,41.84375 c 0,3.41348 2.14033,5.23806 3.15625,6 a 6.4378662,6.4378662 0 0 0 0.625,0.40625 c 1.57987,0.92159 3.33456,1.68772 5.25,2.1875 0.01,0.003 0.0215,-0.003 0.0313,0 2.53896,0.67819 5.13368,1 7.75,1 1.25334,0 2.49768,-0.1036 3.75,-0.28125 0.0101,-0.001 0.0212,0.001 0.0313,0 7.30652,-1.02559 13.97958,-4.66882 19.28125,-10.3125 a 6.4378662,6.4378662 0 0 0 0.0625,-0.0313 c 5.32118,-5.77895 8.37496,-12.83622 8.375,-20.21875 -4e-5,-3.32175 -0.63803,-6.48522 -1.8125,-9.375 l 0.0313,0 c -0.0245,-0.0659 -0.0688,-0.12177 -0.0937,-0.1875 -0.003,-0.009 0.003,-0.0223 0,-0.0313 -0.94351,-2.47946 -2.17162,-4.79143 -3.75,-6.875 -1.30069,-1.71681 -2.83429,-3.26442 -4.5,-4.65625 a 6.4378662,6.4378662 0 0 0 -0.84375,-0.78125 c -0.0364,-0.0283 -0.0885,-0.0343 -0.125,-0.0625 -3.72854,-2.87568 -8.24133,-4.79852 -13.28125,-5.90625 -0.83915,-0.18239 -1.7042,-0.24993 -2.5625,-0.34375 l 0,-0.0625 c -0.437,-0.0874 -0.59669,-0.0685 -0.90625,-0.0937 -0.13511,-0.004 -0.19822,-0.0312 -0.34375,-0.0313 l 0,0.0313 c -0.28576,-0.0118 -0.70355,-0.0937 -0.9375,-0.0937 -0.38344,4e-5 -0.87623,4e-5 -1.5,0 z"
       inkscape:export-filename="/home/alberto/src/roadcoin_editor/icons/sources/rceditor_logo_original.png"
       inkscape:export-xdpi="90"
       inkscape:export-ydpi="90" />
    <path
       id="path3994"
       style="font-size:72px;font-style:normal;font-variant:normal;font-weight:normal;font-stretch:normal;fill:#ffffff;stroke:#000000;stroke-width:1;stroke-linecap:butt;stroke-linejoin:round;stroke-miterlimit:4;stroke-opacity:1;font-family:Foo;-inkscape-font-specification:Foo;fill-opacity:1"
       d="m 338.66268,524.57933 c -0.62402,-2.25598 -1.48802,-3.74398 -2.592,-4.464 -0.86402,-0.47998 -1.84802,-0.71998 -2.952,-0.72 l 0.072,13.752 c 0.52798,-0.096 1.17598,-0.35999 1.94401,-0.792 0.76797,-0.43199 1.41597,-0.98399 1.94399,-1.656 0.52798,-0.62399 0.93598,-1.34399 1.224,-2.16 0.33598,-0.86399 0.50398,-1.70399 0.504,-2.52 -2e-5,-0.28798 -0.024,-0.55198 -0.072,-0.792 -2e-5,-0.23998 -0.024,-0.47998 -0.072,-0.72 l 0,0.072 m 12.67201,-13.464 c 0.91196,2.16003 1.36796,4.56003 1.36799,7.2 -3e-5,5.71202 -2.23203,10.99201 -6.696,15.84 -4.46402,4.752 -9.62402,7.536 -15.47999,8.352 -1.00802,0.144 -1.96802,0.216 -2.88,0.216 -2.11202,0 -4.15202,-0.264 -6.12,-0.792 -1.29601,-0.336 -2.52001,-0.84 -3.67201,-1.512 -0.384,-0.288 -0.576,-0.576 -0.576,-0.864 l -0.072,-41.832 c -1e-5,-0.67196 0.35999,-1.00796 1.07999,-1.008 0.768,4e-5 1.488,4e-5 2.16,0 0.72,-0.048 1.392,-0.072 2.016,-0.072 l -0.072,0 c 1.91999,-0.14396 3.38399,-0.23996 4.392,-0.288 1.05599,-0.048 1.63199,-0.072 1.728,-0.072 0.62399,4e-5 1.12799,4e-5 1.512,0 0.38399,4e-5 0.69599,0.024 0.936,0.072 0.52799,4e-5 1.34399,0.12004 2.44801,0.36 4.36797,0.96004 7.96797,2.54404 10.79999,4.752 l -0.072,0 c 1.63196,1.24804 3.04796,2.66404 4.248,4.248 1.19996,1.58403 2.18396,3.40803 2.952,5.472 l 0,-0.072"
       inkscape:export-filename="/home/alberto/src/roadcoin_editor/icons/sources/rceditor_logo_original.png"
       inkscape:export-xdpi="90"
       inkscape:export-ydpi="90" />
    <path
       sodipodi:type="inkscape:offset"
       inkscape:radius="8.578866"
       inkscape:original="M 399.5 485.46875 C 398.49197 485.46881 397.44772 485.5291 396.34375 485.625 C 395.23973 485.72106 394.28473 485.87056 393.46875 486.0625 C 388.04473 487.26255 383.49173 489.2473 379.84375 492.03125 C 375.85973 495.0553 372.92 499.08504 371 504.125 C 370.376 505.70904 369.9275 507.20178 369.6875 508.59375 C 369.4475 509.93778 369.34374 511.43053 369.34375 513.0625 C 369.34374 520.35852 372.1195 527.00001 377.6875 533 C 383.25549 539 389.71848 542.492 397.0625 543.5 C 398.31047 543.644 399.47521 543.71875 400.53125 543.71875 C 403.07521 543.71875 405.6122 543.37625 408.15625 542.65625 C 409.9322 542.17625 411.43945 541.57825 412.6875 540.90625 C 412.97545 540.71425 413.12496 540.52125 413.125 540.28125 C 413.12496 538.26525 413.154 536.71226 413.25 535.65625 C 413.34596 534.55226 413.42075 533.85051 413.46875 533.5625 C 413.46871 533.51451 413.31921 533.18651 413.03125 532.5625 C 412.79121 532.1785 412.52346 532.029 412.1875 532.125 C 411.41946 532.36501 410.77796 532.529 410.25 532.625 C 409.72196 532.673 408.87071 532.71876 407.71875 532.71875 C 406.47071 532.71876 405.38072 532.6585 404.46875 532.5625 C 403.60472 532.41851 402.87396 532.26901 402.25 532.125 C 399.41796 530.78101 397.37296 529.28826 396.125 527.65625 C 394.92497 526.02427 394.31248 524.29277 394.3125 522.46875 C 394.31248 520.16477 395.17823 517.85202 396.90625 515.5 C 398.39422 513.48403 400.34997 511.64878 402.75 509.96875 C 403.37397 509.72878 404.00097 509.5335 404.625 509.4375 C 405.29697 509.2935 406.11696 509.25003 407.125 509.25 C 407.79696 509.25003 409.0967 509.36828 410.96875 509.65625 C 412.8887 509.89628 414.0222 510.03128 414.40625 510.03125 C 414.8862 510.03128 415.12496 509.79253 415.125 509.3125 C 415.12496 505.90454 414.94646 502.20279 414.5625 498.21875 C 414.22646 494.1868 413.77796 490.33555 413.25 486.6875 C 413.15396 486.25556 412.9152 486.06256 412.53125 486.0625 C 410.7072 486.06256 408.39446 485.94206 405.5625 485.75 C 402.73047 485.5581 400.69997 485.46881 399.5 485.46875 z "
       xlink:href="#path3996"
       style="font-size:72px;font-style:normal;font-variant:normal;font-weight:normal;font-stretch:normal;fill:#ffffff;stroke:#000000;stroke-width:1;stroke-linecap:butt;stroke-linejoin:round;stroke-miterlimit:4;stroke-opacity:1;font-family:Foo;-inkscape-font-specification:Foo;fill-opacity:1"
       id="path4023"
       inkscape:href="#path3996"
       d="m 399.875,476.875 c -1.34973,8e-5 -2.66379,0.1081 -3.9375,0.21875 -1.39942,0.12176 -2.70437,0.3033 -3.96875,0.59375 -0.0432,0.01 -0.0819,0.0216 -0.125,0.0313 -6.32319,1.41471 -12.04926,3.84287 -16.8125,7.46875 -0.0115,0.009 -0.0198,0.0225 -0.0313,0.0313 -5.22518,3.977 -9.19997,9.43907 -11.625,15.75 -0.0134,0.035 -0.0492,0.0587 -0.0625,0.0937 l 0.0313,0 c -0.79991,2.04782 -1.40698,4.07302 -1.75,6.0625 l 0.0313,0 c -0.33194,1.86949 -0.53126,3.84329 -0.53125,5.9375 -10e-6,9.4964 3.95023,18.52128 10.6875,25.78125 6.67973,7.19799 15.14887,11.87705 24.46875,13.15625 a 8.5797239,8.5797239 0 0 0 0.1875,0.0313 c 1.51595,0.17492 2.97663,0.28125 4.4375,0.28125 3.28193,0 6.60974,-0.46035 9.875,-1.375 0.022,-0.006 0.0405,-0.0251 0.0625,-0.0313 0.01,-0.003 0.0213,0.003 0.0313,0 2.2884,-0.62552 4.36171,-1.42077 6.25,-2.4375 a 8.5797239,8.5797239 0 0 0 0.6875,-0.4375 c 1.35535,-0.90372 4.28062,-3.94792 4.28125,-7.75 -4e-5,-1.84487 0.0371,-3.22045 0.0937,-3.84375 a 8.5797239,8.5797239 0 0 0 0,-0.0313 c 0.0898,-1.03334 0.24218,-1.95307 0.15625,-1.4375 a 8.5797239,8.5797239 0 0 0 0.125,-1.40625 c -0.002,-2.22902 -0.30365,-2.26793 -0.40625,-2.59375 -0.1026,-0.32582 -0.16715,-0.49336 -0.21875,-0.625 -0.1032,-0.26328 -0.1578,-0.39337 -0.21875,-0.53125 -0.12189,-0.27576 -0.25932,-0.52536 -0.40625,-0.84375 A 8.5797239,8.5797239 0 0 0 420.6875,528 c -0.70342,-1.12528 -1.85662,-2.50644 -3.84375,-3.5 -1.98713,-0.99356 -4.71063,-1.18096 -6.65625,-0.625 a 8.5797239,8.5797239 0 0 0 -0.21875,0.0625 c -0.34732,0.10853 -0.43971,0.11913 -0.59375,0.15625 -0.3034,0.0189 -0.61888,0.0313 -1.3125,0.0313 -0.89319,10e-6 -1.55342,-0.0387 -2.125,-0.0937 -0.0975,-0.0172 -0.15815,-0.0143 -0.25,-0.0313 -1.29458,-0.73778 -2.37871,-1.52648 -2.40625,-1.5625 -3.7e-4,-0.16054 -0.0297,-0.56983 0.90625,-1.84375 0.66896,-0.90634 1.76557,-1.84318 2.9375,-2.78125 0.13466,-0.0102 -0.023,0.0313 0.375,0.0313 -0.33402,-10e-6 0.85472,0.0282 2.5,0.28125 a 8.5797239,8.5797239 0 0 0 0.25,0.0313 c 1.95085,0.24389 2.13544,0.46894 4.53125,0.46875 1.66258,10e-5 4.44679,-0.57181 6.59375,-2.71875 2.14696,-2.14694 2.71861,-4.93152 2.71875,-6.59375 -4e-5,-3.73037 -0.25813,-7.65679 -0.65625,-11.8125 l 0.0313,0 c -0.3473,-4.1671 -0.78497,-8.17025 -1.34375,-12.03125 A 8.5797239,8.5797239 0 0 0 422,484.8125 c -0.31618,-1.42203 -1.16322,-3.50245 -3.0625,-5.125 -1.89928,-1.62255 -4.40211,-2.2185 -6.03125,-2.21875 -1.44598,5e-5 -3.65144,-0.0944 -6.40625,-0.28125 -2.92465,-0.19818 -4.99994,-0.31242 -6.625,-0.3125 z"
       inkscape:export-filename="/home/alberto/src/roadcoin_editor/icons/sources/rceditor_logo_original.png"
       inkscape:export-xdpi="90"
       inkscape:export-ydpi="90" />
    <path
       id="path3996"
       style="font-size:72px;font-style:normal;font-variant:normal;font-weight:normal;font-stretch:normal;fill:#ffffff;stroke:#000000;stroke-width:1;stroke-linecap:butt;stroke-linejoin:round;stroke-miterlimit:4;stroke-opacity:1;font-family:Foo;-inkscape-font-specification:Foo;fill-opacity:1"
       d="m 415.1326,509.30676 c -4e-5,0.48003 -0.24004,0.72003 -0.71999,0.72 -0.38405,3e-5 -1.53605,-0.11997 -3.456,-0.36 -1.87205,-0.28797 -3.14405,-0.43197 -3.81601,-0.432 -1.00804,3e-5 -1.84803,0.072 -2.52,0.216 -0.62403,0.096 -1.24803,0.26403 -1.872,0.504 -2.40003,1.68003 -4.34403,3.52803 -5.832,5.544 -1.72802,2.35202 -2.59202,4.68002 -2.592,6.984 -2e-5,1.82402 0.59998,3.55202 1.80001,5.184 1.24796,1.63201 3.28796,3.12001 6.12,4.464 0.62396,0.14401 1.36796,0.28801 2.23199,0.432 0.91197,0.096 1.99196,0.14401 3.24,0.144 1.15196,10e-6 1.99196,-0.024 2.52,-0.072 0.52796,-0.096 1.17596,-0.26399 1.944,-0.504 0.33596,-0.096 0.62396,0.048 0.864,0.432 0.28796,0.62401 0.43196,0.96001 0.432,1.008 -0.048,0.28801 -0.12004,0.98401 -0.216,2.088 -0.096,1.05601 -0.14404,2.592 -0.144,4.608 -4e-5,0.24 -0.14404,0.456 -0.43199,0.648 -1.24805,0.672 -2.76005,1.248 -4.536,1.728 -2.54405,0.72 -5.08804,1.08 -7.632,1.08 -1.05604,0 -2.20804,-0.072 -3.45601,-0.216 -7.34402,-1.008 -13.80001,-4.512 -19.368,-10.512 -5.568,-5.99999 -8.352,-12.64798 -8.35199,-19.944 -1e-5,-1.63197 0.11999,-3.11997 0.35999,-4.464 0.24,-1.39197 0.672,-2.87996 1.296,-4.464 1.92,-5.03996 4.87199,-9.07195 8.85601,-12.096 3.64798,-2.78395 8.18397,-4.77595 13.60799,-5.976 0.81598,-0.19194 1.77598,-0.33594 2.88,-0.432 1.10397,-0.0959 2.15997,-0.14394 3.168,-0.144 1.19997,6e-5 3.21597,0.0961 6.048,0.288 2.83196,0.19206 5.15996,0.28806 6.98401,0.288 0.38395,6e-5 0.62395,0.21606 0.71999,0.648 0.52796,3.64805 0.95996,7.48805 1.296,11.52 0.38396,3.98404 0.57596,7.68004 0.576,11.088"
       inkscape:export-filename="/home/alberto/src/roadcoin_editor/icons/sources/rceditor_logo_original.png"
       inkscape:export-xdpi="90"
       inkscape:export-ydpi="90" />
    <path
       sodipodi:type="inkscape:offset"
       inkscape:radius="7.1784825"
       inkscape:original="M 449.625 495.84375 C 445.73698 495.84379 442.25948 496.76979 439.1875 498.59375 C 436.01949 500.41779 433.70674 502.94029 432.21875 506.15625 C 431.40275 507.98028 430.79025 509.87578 430.40625 511.84375 C 430.02225 513.76378 429.84375 515.76303 429.84375 517.875 C 429.84375 521.18702 430.32125 524.48602 431.28125 527.75 C 432.14524 530.82201 433.32449 533.35901 434.8125 535.375 C 436.44449 537.631 438.56424 539.3625 441.15625 540.5625 C 443.79623 541.7625 446.57198 542.375 449.5 542.375 C 452.09197 542.375 454.52522 541.85175 456.78125 540.84375 C 459.03722 539.88375 460.87247 538.391 462.3125 536.375 C 464.32846 533.63901 465.91046 530.68476 467.0625 527.46875 C 468.21446 524.20477 468.78121 520.83102 468.78125 517.375 C 468.78121 515.64703 468.61721 513.88653 468.28125 512.0625 C 467.94521 510.19053 467.40746 508.39878 466.6875 506.71875 C 465.34346 503.16679 463.03071 500.46579 459.71875 498.59375 C 456.83872 496.76979 453.46497 495.84379 449.625 495.84375 z M 449.4375 517.65625 C 450.73348 517.65627 451.62822 518.10477 452.15625 518.96875 C 452.54022 519.59277 452.74997 520.60802 452.75 522 C 452.702 522.43202 452.65622 522.86377 452.65625 523.34375 C 452.65622 523.77577 452.65622 524.20977 452.65625 524.59375 C 452.65622 526.17776 452.34272 527.61026 451.71875 528.90625 C 451.14273 530.15426 450.39748 530.78126 449.4375 530.78125 C 448.52548 530.78126 447.65973 530.15426 446.84375 528.90625 L 446.84375 528.96875 C 446.45973 528.29676 446.14623 527.64076 445.90625 526.96875 C 445.71425 526.24876 445.59373 525.45777 445.59375 524.59375 L 445.59375 523.0625 C 445.59373 521.28652 445.80348 520.01802 446.1875 519.25 C 446.81148 518.19402 447.90148 517.65627 449.4375 517.65625 z "
       xlink:href="#path3998"
       style="font-size:72px;font-style:normal;font-variant:normal;font-weight:normal;font-stretch:normal;fill:#ffffff;stroke:#000000;stroke-width:1;stroke-linecap:butt;stroke-linejoin:round;stroke-miterlimit:4;stroke-opacity:1;font-family:Foo;-inkscape-font-specification:Foo;fill-opacity:1"
       id="path4025"
       inkscape:href="#path3998"
       d="m 449.625,488.65625 c -5.00359,5e-5 -9.84523,1.24895 -14.03125,3.71875 -0.0202,0.0119 -0.0423,0.0193 -0.0625,0.0313 -4.3107,2.49844 -7.74456,6.28061 -9.8125,10.75 a 7.1792004,7.1792004 0 0 0 -0.0625,0.0625 c -1.02219,2.28493 -1.78803,4.7036 -2.28125,7.21875 -0.002,0.01 0.002,0.0213 0,0.0313 -0.48373,2.4304 -0.71875,4.90028 -0.71875,7.40625 0,3.96947 0.58955,7.9407 1.71875,11.8125 0.009,0.0326 0.022,0.0611 0.0313,0.0937 1.04056,3.66547 2.50493,6.97218 4.59375,9.8125 0.008,0.0114 0.0228,0.0199 0.0313,0.0313 2.33729,3.21758 5.48022,5.76457 9.09375,7.4375 a 7.1792004,7.1792004 0 0 0 0.0625,0.0313 c 3.5279,1.6036 7.38339,2.46875 11.3125,2.46875 3.51423,0 6.95857,-0.74405 10.09375,-2.125 0.0391,-0.0172 0.086,-0.0138 0.125,-0.0313 l -0.0313,-0.0313 c 3.36117,-1.45358 6.28928,-3.81362 8.40625,-6.75 0.0172,-0.0239 0.0454,-0.0385 0.0625,-0.0625 2.392,-3.26013 4.28107,-6.84858 5.65625,-10.6875 a 7.1792004,7.1792004 0 0 0 0.0313,-0.0313 c 1.4227,-4.03111 2.12495,-8.22799 2.125,-12.46875 -5e-5,-2.17186 -0.21916,-4.38034 -0.625,-6.59375 -0.002,-0.01 0.002,-0.0213 0,-0.0313 -0.41312,-2.28908 -1.0927,-4.46313 -1.96875,-6.5625 l 0.0313,0 c -0.0281,-0.0742 -0.0649,-0.14484 -0.0937,-0.21875 -0.008,-0.0217 -0.0227,-0.0408 -0.0313,-0.0625 -1.86514,-4.73182 -5.32579,-8.7607 -9.71875,-11.34375 l 0,-0.0313 c -0.0512,-0.0324 -0.1048,-0.0617 -0.15625,-0.0937 -0.0528,-0.0304 -0.10321,-0.0638 -0.15625,-0.0937 -4.02704,-2.46288 -8.75601,-3.68745 -13.625,-3.6875 z"
       inkscape:export-filename="/home/alberto/src/roadcoin_editor/icons/sources/rceditor_logo_original.png"
       inkscape:export-xdpi="90"
       inkscape:export-ydpi="90" />
    <path
       id="path3998"
       style="font-size:72px;font-style:normal;font-variant:normal;font-weight:normal;font-stretch:normal;fill:#ffffff;stroke:#000000;stroke-width:1;stroke-linecap:butt;stroke-linejoin:round;stroke-miterlimit:4;stroke-opacity:1;font-family:Foo;-inkscape-font-specification:Foo;fill-opacity:1"
       d="m 452.66282,524.57933 c -3e-5,-0.38398 -3e-5,-0.79198 0,-1.224 -3e-5,-0.47998 0.024,-0.93598 0.072,-1.368 -3e-5,-1.39198 -0.19203,-2.39998 -0.576,-3.024 -0.52803,-0.86398 -1.44002,-1.29598 -2.736,-1.296 -1.53602,2e-5 -2.61602,0.52802 -3.24,1.584 -0.38402,0.76802 -0.57602,2.04002 -0.576,3.816 l 0,1.512 c -2e-5,0.86402 0.096,1.65601 0.288,2.376 0.23998,0.67201 0.55198,1.34401 0.936,2.016 l 0,-0.072 c 0.81598,1.24801 1.67998,1.87201 2.592,1.872 0.95998,10e-6 1.72798,-0.62399 2.304,-1.872 0.62397,-1.29599 0.93597,-2.73599 0.936,-4.32 m 14.04,-17.856 c 0.71996,1.68003 1.24796,3.45603 1.584,5.328 0.33596,1.82403 0.50396,3.60003 0.504,5.328 -4e-5,3.45602 -0.57604,6.81602 -1.728,10.08 -1.15204,3.21601 -2.73604,6.19201 -4.752,8.928 -1.44003,2.016 -3.28803,3.504 -5.544,4.464 -2.25603,1.008 -4.68003,1.512 -7.272,1.512 -2.92802,0 -5.71202,-0.6 -8.352,-1.8 -2.59201,-1.2 -4.70401,-2.928 -6.336,-5.184 -1.48801,-2.01599 -2.66401,-4.55999 -3.528,-7.632 -0.96,-3.26398 -1.44,-6.55198 -1.44,-9.864 0,-2.11197 0.192,-4.12797 0.576,-6.048 0.384,-1.96797 0.984,-3.86397 1.8,-5.688 1.48799,-3.21596 3.81599,-5.73596 6.984,-7.56 3.07198,-1.82396 6.55198,-2.73596 10.44,-2.736 3.83997,4e-5 7.19997,0.91204 10.08,2.736 3.31196,1.87204 5.63996,4.58404 6.984,8.136"
       inkscape:export-filename="/home/alberto/src/roadcoin_editor/icons/sources/rceditor_logo_original.png"
       inkscape:export-xdpi="90"
       inkscape:export-ydpi="90" />
    <path
       sodipodi:type="inkscape:offset"
       inkscape:radius="6.1133008"
       inkscape:original="M 482.78125 497.5 C 482.01325 497.50004 481.625 497.87379 481.625 498.59375 C 481.625 500.41779 481.67075 502.46279 481.71875 504.71875 C 481.81475 506.92678 481.904 509.32878 482 511.96875 L 482.125 514.84375 L 482.28125 517.59375 C 482.52125 521.81777 482.731 525.90776 482.875 529.84375 C 483.019 533.73176 483.0625 537.448 483.0625 541 C 483.0625 541.672 483.43625 542 484.15625 542 L 499.9375 542 C 500.70547 542 501.06248 541.672 501.0625 541 C 501.06248 537.64 501.13722 532.58051 501.28125 525.8125 L 501.4375 521.1875 C 501.4855 519.65152 501.54575 518.14427 501.59375 516.65625 C 501.64175 514.83228 501.65622 513.07178 501.65625 511.34375 C 501.70422 509.56778 501.779 507.83628 501.875 506.15625 C 501.87498 505.48429 501.87498 504.84279 501.875 504.21875 C 501.875 503.59479 501.8895 502.96779 501.9375 502.34375 C 501.93748 501.71979 501.93748 501.09279 501.9375 500.46875 C 501.9855 499.84479 501.99998 499.21779 502 498.59375 C 501.99998 497.87379 501.65748 497.50004 500.9375 497.5 L 482.78125 497.5 z "
       xlink:href="#path4000"
       style="font-size:72px;font-style:normal;font-variant:normal;font-weight:normal;font-stretch:normal;fill:#ffffff;stroke:#000000;stroke-width:1;stroke-linecap:butt;stroke-linejoin:round;stroke-miterlimit:4;stroke-opacity:1;font-family:Foo;-inkscape-font-specification:Foo;fill-opacity:1"
       id="path4027"
       inkscape:href="#path4000"
       d="m 482.78125,491.375 c -1.37563,7e-5 -3.41206,0.40059 -5.0625,1.96875 -1.65044,1.56816 -2.21875,3.79112 -2.21875,5.25 0,1.92626 0.0458,3.99808 0.0937,6.25 a 6.1139121,6.1139121 0 0 0 0.0313,0.125 c 0.0948,2.18008 0.18536,4.58171 0.28125,7.21875 a 6.1139121,6.1139121 0 0 0 0,0.0313 l 0.125,2.875 a 6.1139121,6.1139121 0 0 0 0,0.0937 l 0.15625,2.75 c 0.23877,4.20229 0.45202,8.25113 0.59375,12.125 0.14035,3.78953 0.15625,7.43541 0.15625,10.9375 0,1.46936 0.63066,3.75928 2.3125,5.28125 1.68184,1.52197 3.61793,1.84375 4.90625,1.84375 l 15.78125,0 c 1.25432,0 3.20721,-0.26202 4.9375,-1.8125 1.73029,-1.55048 2.31246,-3.89394 2.3125,-5.3125 -2e-5,-3.24896 0.0769,-8.28368 0.21875,-14.96875 8.9e-4,-0.0419 -8.9e-4,-0.0518 0,-0.0937 l 0.15625,-4.53125 a 6.1139121,6.1139121 0 0 0 0,-0.0313 c 0.0469,-1.50114 0.10722,-3.01143 0.15625,-4.53125 a 6.1139121,6.1139121 0 0 0 0,-0.0313 c 0.0485,-1.84095 0.0616,-3.59774 0.0625,-5.3125 3e-5,-0.0504 0,-0.10591 0,-0.15625 0.0464,-1.65583 0.0977,-3.27265 0.1875,-4.84375 A 6.1139121,6.1139121 0 0 0 508,506.15625 c -2e-5,-0.67184 -2e-5,-1.31359 0,-1.9375 0,-0.52925 4e-5,-1.00054 0.0313,-1.40625 a 6.1139121,6.1139121 0 0 0 0.0313,-0.46875 c -2e-5,-0.62383 -2e-5,-1.25109 0,-1.875 0.0372,-0.65453 0.0625,-1.30037 0.0625,-1.875 -4e-5,-1.32936 -0.381,-3.37287 -1.96875,-5.03125 -1.58775,-1.65838 -3.80099,-2.18742 -5.21875,-2.1875 l -18.15625,0 z"
       inkscape:export-filename="/home/alberto/src/roadcoin_editor/icons/sources/rceditor_logo_original.png"
       inkscape:export-xdpi="90"
       inkscape:export-ydpi="90" />
    <path
       id="path4000"
       style="font-size:72px;font-style:normal;font-variant:normal;font-weight:normal;font-stretch:normal;fill:#ffffff;stroke:#000000;stroke-width:1;stroke-linecap:butt;stroke-linejoin:round;stroke-miterlimit:4;stroke-opacity:1;font-family:Foo;-inkscape-font-specification:Foo;fill-opacity:1"
       d="m 502.01168,498.58733 c -2e-5,0.62404 -0.024,1.24804 -0.072,1.872 -2e-5,0.62404 -2e-5,1.24804 0,1.872 -0.048,0.62404 -0.072,1.24804 -0.072,1.872 -2e-5,0.62404 -2e-5,1.27204 0,1.944 -0.096,1.68003 -0.16802,3.40803 -0.21599,5.184 -3e-5,1.72803 -0.024,3.50403 -0.072,5.328 -0.048,1.48802 -0.096,3.00002 -0.144,4.536 -0.048,1.53602 -0.096,3.07202 -0.144,4.608 -0.14403,6.76801 -0.21603,11.832 -0.21601,15.192 -2e-5,0.672 -0.38402,1.008 -1.15199,1.008 l -15.76801,0 c -0.72,0 -1.08,-0.336 -1.08,-1.008 0,-3.552 -0.072,-7.27199 -0.216,-11.16 -0.144,-3.93599 -0.336,-8.01598 -0.576,-12.24 -0.048,-0.91198 -0.096,-1.82397 -0.14399,-2.736 -0.048,-0.95997 -0.096,-1.91997 -0.144,-2.88 -0.096,-2.63997 -0.19201,-5.06397 -0.28801,-7.272 -0.048,-2.25596 -0.072,-4.29596 -0.072,-6.12 0,-0.71996 0.384,-1.07996 1.152,-1.08 l 18.144,0 c 0.71998,4e-5 1.07998,0.36004 1.08,1.08"
       inkscape:export-filename="/home/alberto/src/roadcoin_editor/icons/sources/rceditor_logo_original.png"
       inkscape:export-xdpi="90"
       inkscape:export-ydpi="90" />
    <path
       sodipodi:type="inkscape:offset"
       inkscape:radius="6.7951064"
       inkscape:original="M 540.78125 497.5 C 540.20523 497.5 539.65298 497.54575 539.125 497.59375 C 538.61864 497.63982 538.14968 497.69108 537.6875 497.78125 C 537.30348 497.82929 536.91523 497.97879 536.53125 498.21875 C 536.14723 498.45879 535.96873 498.75779 535.96875 499.09375 L 535.96875 510.625 L 527.96875 498.375 L 527.3125 498.09375 C 527.02449 498.04575 526.75673 498.00004 526.46875 498 L 525.75 497.875 C 525.65399 497.87504 525.56475 497.87504 525.46875 497.875 C 525.42074 497.827 525.346 497.78129 525.25 497.78125 C 523.69301 497.64139 522.27724 497.59379 521 497.59375 C 519.176 497.59379 517.758 497.71204 516.75 498 C 516.27 498.09604 516.03124 498.45529 516.03125 499.03125 L 516.03125 541.0625 C 516.03124 541.6865 516.37375 542.06025 517.09375 542.15625 C 517.81375 542.25225 518.90374 542.28125 520.34375 542.28125 C 521.06374 542.28125 521.78 542.26675 522.5 542.21875 C 523.26799 542.21875 524.05898 542.20425 524.875 542.15625 C 525.45098 542.10825 525.82474 541.80925 525.96875 541.28125 C 526.01675 540.75325 526.03124 540.201 526.03125 539.625 C 526.07925 539.049 526.09374 538.4365 526.09375 537.8125 C 526.09375 537.6685 526.07925 537.49 526.03125 537.25 L 526.03125 536.375 C 526.03125 535.991 526.01675 535.58826 525.96875 535.15625 L 525.96875 533.65625 C 525.96875 533.32026 525.923 533.00676 525.875 532.71875 L 525.875 531.9375 C 525.827 531.55351 525.81249 531.19426 525.8125 530.90625 L 525.8125 530.0625 L 534.03125 541.78125 L 534.65625 542.15625 C 535.32823 542.20425 536.07572 542.21875 536.84375 542.21875 C 537.65972 542.26675 538.52548 542.28125 539.4375 542.28125 L 540.0625 542.28125 C 541.35848 542.28125 542.44847 542.26675 543.3125 542.21875 C 544.17647 542.21875 544.95296 542.20425 545.625 542.15625 C 546.29696 542.10825 546.62497 541.7345 546.625 541.0625 L 546.625 499.03125 C 546.62497 498.45529 546.32596 498.096 545.75 498 C 545.17396 497.85604 544.66746 497.76675 544.1875 497.71875 C 543.70746 497.62279 543.31922 497.548 543.03125 497.5 L 540.78125 497.5 z "
       xlink:href="#path4002"
       style="font-size:72px;font-style:normal;font-variant:normal;font-weight:normal;font-stretch:normal;fill:#ffffff;stroke:#000000;stroke-width:1;stroke-linecap:butt;stroke-linejoin:round;stroke-miterlimit:4;stroke-opacity:1;font-family:Foo;-inkscape-font-specification:Foo;fill-opacity:1"
       id="path4029"
       inkscape:href="#path4002"
       d="m 540.78125,490.71875 c -0.93582,0 -1.7155,0.0423 -2.28125,0.0937 -0.4541,0.0413 -1.04925,0.15215 -1.65625,0.25 l 0,-0.0313 c -0.0898,0.0112 -0.16181,0.0488 -0.25,0.0625 -0.0832,0.0149 -0.13284,0.0145 -0.21875,0.0313 l 0,0.0313 c -1.33236,0.2418 -2.49858,0.72574 -3.4375,1.3125 -0.21793,0.13622 -0.40245,0.50012 -0.625,0.6875 A 6.7957859,6.7957859 0 0 0 530.65625,492.125 L 530,491.84375 a 6.7957859,6.7957859 0 0 0 -1.5625,-0.4375 c -0.11191,-0.0186 -0.56733,-0.0279 -0.8125,-0.0625 -8.9e-4,-1.3e-4 8.9e-4,-0.0311 0,-0.0313 l -0.71875,-0.125 a 6.7957859,6.7957859 0 0 0 -1.0625,-0.0937 l 0,-0.0937 c -1.78574,-0.16041 -3.39784,-0.18745 -4.84375,-0.1875 -1.93596,4e-5 -3.66912,0.0848 -5.59375,0.5625 l 0,-0.0313 c -0.0408,0.008 -0.0837,0.0533 -0.125,0.0625 -0.13825,0.0355 -0.26552,0.0223 -0.40625,0.0625 l 0.0313,0.0937 c -1.52807,0.44001 -3.2574,1.41941 -4.28125,2.90625 -1.13553,1.64902 -1.37502,3.33554 -1.375,4.5625 l 0,42.03125 c -2e-5,1.55529 0.58436,3.82834 2.125,5.4375 1.54064,1.60916 3.44732,2.22423 4.8125,2.40625 1.43284,0.19105 2.62501,0.15625 4.15625,0.15625 0.67447,0 1.40125,-0.0233 2.15625,-0.0625 0.13419,0 0.29968,8.9e-4 0.4375,0 0.73877,-0.005 1.50696,-0.0133 2.34375,-0.0625 a 6.7957859,6.7957859 0 0 0 0.15625,0 c 1.32345,-0.11029 2.87943,-0.88829 4.21875,-1.96875 a 6.7957859,6.7957859 0 0 0 0.875,0.625 l 0.625,0.375 a 6.7957859,6.7957859 0 0 0 3.03125,0.96875 c 0.78969,0.0564 1.51826,0.0583 2.25,0.0625 0.13203,7.6e-4 0.27578,0 0.40625,0 0.87378,0.0416 1.74291,0.0625 2.59375,0.0625 l 0.625,0 c 1.2074,0 2.24563,-0.0163 3.25,-0.0625 0.12668,0 0.24923,5.5e-4 0.375,0 0.80748,-0.004 1.5877,-0.004 2.40625,-0.0625 1.50785,-0.10771 3.73831,-0.79171 5.3125,-2.53125 1.57419,-1.73954 1.99994,-3.90222 2,-5.34375 l 0,-42.03125 c -8e-5,-1.4638 -0.46188,-3.49402 -1.8125,-5.09375 -1.20871,-1.43164 -2.83843,-2.11105 -4.21875,-2.4375 l 0.0313,-0.0937 c -0.17721,-0.0443 -0.3536,-0.0545 -0.53125,-0.0937 -0.44832,-0.099 -0.89647,-0.15513 -1.34375,-0.21875 l 0,-0.0313 c -0.50513,-0.10097 -0.9349,-0.17664 -1.375,-0.25 a 6.7957859,6.7957859 0 0 0 -1.125,-0.0937 l -2.25,0 z"
       inkscape:export-filename="/home/alberto/src/roadcoin_editor/icons/sources/rceditor_logo_original.png"
       inkscape:export-xdpi="90"
       inkscape:export-ydpi="90" />
    <path
       id="path4002"
       style="font-size:72px;font-style:normal;font-variant:normal;font-weight:normal;font-stretch:normal;fill:#ffffff;stroke:#000000;stroke-width:1;stroke-linecap:butt;stroke-linejoin:round;stroke-miterlimit:4;stroke-opacity:1;font-family:Foo;-inkscape-font-specification:Foo;fill-opacity:1"
       d="m 546.62363,541.06733 c -3e-5,0.672 -0.33603,1.032 -1.00799,1.08 -0.67204,0.048 -1.44004,0.072 -2.30401,0.072 -0.86403,0.048 -1.94402,0.072 -3.24,0.072 l -0.648,0 c -0.91202,0 -1.77602,-0.024 -2.59199,-0.072 -0.76803,0 -1.48803,-0.024 -2.16001,-0.072 l -0.648,-0.36 -8.208,-11.736 c -1e-5,0.28801 -1e-5,0.57601 0,0.864 -1e-5,0.28801 0.024,0.62401 0.072,1.008 -10e-6,0.24001 -10e-6,0.50401 0,0.792 0.048,0.28801 0.072,0.60001 0.072,0.936 -10e-6,0.52801 -10e-6,1.03201 0,1.512 0.048,0.43201 0.072,0.84 0.072,1.224 -10e-6,0.336 -10e-6,0.624 0,0.864 0.048,0.24 0.072,0.432 0.072,0.576 -10e-6,0.624 -0.024,1.224 -0.072,1.8 -10e-6,0.576 -0.024,1.128 -0.072,1.656 -0.14401,0.528 -0.50401,0.816 -1.07999,0.864 -0.81602,0.048 -1.60802,0.072 -2.37601,0.072 -0.72,0.048 -1.44,0.072 -2.15999,0.072 -1.44001,0 -2.52001,-0.048 -3.24001,-0.144 -0.72,-0.096 -1.08,-0.456 -1.07999,-1.08 l 0,-42.048 c -10e-6,-0.57596 0.23999,-0.91196 0.71999,-1.008 1.008,-0.28796 2.424,-0.43196 4.248,-0.432 1.29599,4e-5 2.73599,0.072 4.32,0.216 l -0.072,0 c 0.096,4e-5 0.16799,0.024 0.216,0.072 0.096,4e-5 0.19199,4e-5 0.288,0 0.23999,0.048 0.47999,0.096 0.72001,0.144 0.28798,4e-5 0.57598,0.024 0.86399,0.072 l 0.64801,0.288 7.99199,12.24 0,-11.52 c -2e-5,-0.33596 0.19198,-0.62396 0.576,-0.864 0.38398,-0.23996 0.76798,-0.38396 1.152,-0.432 l -0.072,0 c 0.47998,-0.096 0.98398,-0.16796 1.512,-0.216 0.52798,-0.048 1.07998,-0.072 1.656,-0.072 l 2.232,0 c 0.28797,0.048 0.67197,0.12004 1.15201,0.216 0.47996,0.048 1.00796,0.14404 1.584,0.288 0.57596,0.096 0.86396,0.43204 0.86399,1.008 l 0,42.048"
       inkscape:export-filename="/home/alberto/src/roadcoin_editor/icons/sources/rceditor_logo_original.png"
       inkscape:export-xdpi="90"
       inkscape:export-ydpi="90" />
    <flowRoot
       xml:space="preserve"
       id="flowRoot2858"
       style="font-size:144px;font-style:italic;font-variant:normal;font-weight:bold;font-stretch:normal;fill:#000000;fill-opacity:1;stroke:none;font-family:Vipnagorgialla;-inkscape-font-specification:Vipnagorgialla Bold Italic"
       transform="matrix(0.78657396,0,0,0.78657396,-2.1846105,34.169809)"
       inkscape:export-filename="/home/alberto/src/roadcoin_editor/icons/sources/rceditor_logo_original.png"
       inkscape:export-xdpi="90"
       inkscape:export-ydpi="90"><flowRegion
         id="flowRegion2860"><rect
           id="rect2862"
           width="594.16718"
           height="183.70828"
           x="149.50258"
           y="621.02704"
           style="font-size:144px;font-style:italic;font-variant:normal;font-weight:bold;font-stretch:normal;font-family:Vipnagorgialla;-inkscape-font-specification:Vipnagorgialla Bold Italic"
           ry="0" /></flowRegion><flowPara
         id="flowPara2864"
         style="font-size:144px;font-style:italic;font-variant:normal;font-weight:bold;font-stretch:normal;text-align:center;text-anchor:middle;font-family:Vipnagorgialla;-inkscape-font-specification:Vipnagorgialla Bold Italic"><flowSpan
   style="font-size:144px;font-style:italic;font-variant:normal;font-weight:bold;font-stretch:normal;font-family:Vipnagorgialla;-inkscape-font-specification:Vipnagorgialla Bold Italic"
   id="flowSpan2908">ed</flowSpan>itor</flowPara><flowPara
         style="font-size:144px;font-style:italic;font-variant:normal;font-weight:bold;font-stretch:normal;font-family:Vipnagorgialla;-inkscape-font-specification:Vipnagorgialla Bold Italic"
         id="flowPara2866" /><flowPara
         style="font-size:144px;font-style:italic;font-variant:normal;font-weight:bold;font-stretch:normal;font-family:Vipnagorgialla;-inkscape-font-specification:Vipnagorgialla Bold Italic"
         id="flowPara2868" /></flowRoot>  </g>
</svg>
